<?xml version="1.0" standalone="no"?>
<!DOCTYPE svg PUBLIC "-//W3C//DTD SVG 20010904//EN"
 "http://www.w3.org/TR/2001/REC-SVG-20010904/DTD/svg10.dtd">
<svg version="1.0" xmlns="http://www.w3.org/2000/svg"
 width="99.000000pt" height="101.000000pt" viewBox="0 0 99.000000 101.000000"
 preserveAspectRatio="xMidYMid meet">

<g transform="translate(0.000000,101.000000) scale(0.100000,-0.100000)"
fill="#000000" stroke="none">
<path d="M30 515 l0 -485 480 0 480 0 0 485 0 485 -480 0 -480 0 0 -485z m450
230 l0 -185 -190 0 -190 0 0 185 0 185 190 0 190 0 0 -185z m311 85 c15 -8 19
-20 18 -53 -1 -23 2 -52 6 -64 5 -16 1 -28 -19 -47 -21 -22 -34 -26 -86 -26
l-60 0 0 100 0 100 61 0 c33 0 69 -5 80 -10z m-429 -455 c5 -24 3 -25 -43 -25
-37 0 -49 -4 -49 -15 0 -10 10 -15 30 -15 23 0 30 -4 30 -20 0 -16 -7 -20 -30
-20 -19 0 -30 -5 -30 -14 0 -11 14 -16 47 -18 40 -3 47 -6 48 -25 2 -22 -2
-23 -77 -23 l-78 0 0 100 0 100 74 0 c71 0 74 -1 78 -25z m398 -75 l0 -100
-30 0 -30 0 0 100 0 100 30 0 30 0 0 -100z"/>
<path d="M700 786 c0 -11 10 -16 31 -16 38 0 35 24 -4 28 -19 2 -27 -1 -27
-12z"/>
<path d="M700 705 c0 -10 10 -15 30 -15 20 0 30 5 30 15 0 10 -10 15 -30 15
-20 0 -30 -5 -30 -15z"/>
</g>
</svg>
